{
	"patcher" : 	{
		"fileversion" : 1,
		"appversion" : 		{
			"major" : 7,
			"minor" : 3,
			"revision" : 4,
			"architecture" : "x64",
			"modernui" : 1
		}
,
		"rect" : [ 414.0, 259.0, 408.0, 409.0 ],
		"bglocked" : 0,
		"openinpresentation" : 1,
		"default_fontsize" : 12.0,
		"default_fontface" : 0,
		"default_fontname" : "Arial",
		"gridonopen" : 1,
		"gridsize" : [ 15.0, 15.0 ],
		"gridsnaponopen" : 1,
		"objectsnaponopen" : 0,
		"statusbarvisible" : 2,
		"toolbarvisible" : 0,
		"lefttoolbarpinned" : 0,
		"toptoolbarpinned" : 0,
		"righttoolbarpinned" : 0,
		"bottomtoolbarpinned" : 0,
		"toolbars_unpinned_last_save" : 0,
		"tallnewobj" : 0,
		"boxanimatetime" : 200,
		"enablehscroll" : 0,
		"enablevscroll" : 0,
		"devicewidth" : 0.0,
		"description" : "",
		"digest" : "",
		"tags" : "",
		"style" : "",
		"subpatcher_template" : "",
		"showontab" : 0,
		"workspacedisabled" : 1,
		"boxes" : [ 			{
				"box" : 				{
					"id" : "obj-7",
					"maxclass" : "newobj",
					"numinlets" : 1,
					"numoutlets" : 1,
					"outlettype" : [ "bang" ],
					"patching_rect" : [ 300.0, 195.0, 60.0, 22.0 ],
					"style" : "",
					"text" : "loadbang"
				}

			}
, 			{
				"box" : 				{
					"id" : "obj-4",
					"linecount" : 2,
					"maxclass" : "message",
					"numinlets" : 2,
					"numoutlets" : 1,
					"outlettype" : [ "" ],
					"patching_rect" : [ 270.0, 165.0, 128.0, 35.0 ],
					"style" : "",
					"text" : "window flags nogrow, window exec"
				}

			}
, 			{
				"box" : 				{
					"id" : "obj-10",
					"maxclass" : "newobj",
					"numinlets" : 1,
					"numoutlets" : 2,
					"outlettype" : [ "", "" ],
					"patching_rect" : [ 310.5, 75.0, 71.0, 22.0 ],
					"save" : [ "#N", "thispatcher", ";", "#Q", "end", ";" ],
					"style" : "",
					"text" : "thispatcher"
				}

			}
, 			{
				"box" : 				{
					"id" : "obj-5",
					"maxclass" : "message",
					"numinlets" : 2,
					"numoutlets" : 1,
					"outlettype" : [ "" ],
					"patching_rect" : [ 310.5, 45.0, 47.0, 22.0 ],
					"style" : "",
					"text" : "wclose"
				}

			}
, 			{
				"box" : 				{
					"id" : "obj-16",
					"maxclass" : "newobj",
					"numinlets" : 5,
					"numoutlets" : 5,
					"outlettype" : [ "", "", "", "", "" ],
					"patching_rect" : [ 45.0, 15.0, 373.0, 22.0 ],
					"style" : "",
					"text" : "route 1 2 3 4"
				}

			}
, 			{
				"box" : 				{
					"id" : "obj-13",
					"maxclass" : "message",
					"numinlets" : 2,
					"numoutlets" : 1,
					"outlettype" : [ "" ],
					"patching_rect" : [ 225.0, 45.0, 77.0, 22.0 ],
					"style" : "",
					"text" : "offset -824 0"
				}

			}
, 			{
				"box" : 				{
					"id" : "obj-12",
					"maxclass" : "message",
					"numinlets" : 2,
					"numoutlets" : 1,
					"outlettype" : [ "" ],
					"patching_rect" : [ 45.0, 77.0, 60.0, 22.0 ],
					"style" : "",
					"text" : "offset 0 0"
				}

			}
, 			{
				"box" : 				{
					"id" : "obj-11",
					"maxclass" : "message",
					"numinlets" : 2,
					"numoutlets" : 1,
					"outlettype" : [ "" ],
					"patching_rect" : [ 133.5, 60.0, 82.0, 22.0 ],
					"style" : "",
					"text" : "offset -412 0"
				}

			}
, 			{
				"box" : 				{
					"bgmode" : 0,
					"border" : 0,
					"clickthrough" : 0,
					"enablehscroll" : 0,
					"enablevscroll" : 0,
					"id" : "obj-6",
					"lockeddragscroll" : 0,
					"maxclass" : "bpatcher",
					"name" : "breath (withecho).maxpat",
					"numinlets" : 2,
					"numoutlets" : 1,
					"offset" : [ 0.0, 0.0 ],
					"outlettype" : [ "" ],
					"patching_rect" : [ 45.0, 135.0, 410.0, 410.0 ],
					"presentation" : 1,
					"presentation_rect" : [ -1.0, -1.0, 410.0, 410.0 ],
					"viewvisibility" : 1
				}

			}
 ],
		"lines" : [ 			{
				"patchline" : 				{
					"destination" : [ "obj-6", 0 ],
					"source" : [ "obj-11", 0 ]
				}

			}
, 			{
				"patchline" : 				{
					"destination" : [ "obj-6", 0 ],
					"source" : [ "obj-12", 0 ]
				}

			}
, 			{
				"patchline" : 				{
					"destination" : [ "obj-6", 0 ],
					"source" : [ "obj-13", 0 ]
				}

			}
, 			{
				"patchline" : 				{
					"destination" : [ "obj-11", 0 ],
					"source" : [ "obj-16", 1 ]
				}

			}
, 			{
				"patchline" : 				{
					"destination" : [ "obj-12", 0 ],
					"source" : [ "obj-16", 0 ]
				}

			}
, 			{
				"patchline" : 				{
					"destination" : [ "obj-13", 0 ],
					"source" : [ "obj-16", 2 ]
				}

			}
, 			{
				"patchline" : 				{
					"destination" : [ "obj-5", 0 ],
					"source" : [ "obj-16", 3 ]
				}

			}
, 			{
				"patchline" : 				{
					"destination" : [ "obj-10", 0 ],
					"source" : [ "obj-4", 0 ]
				}

			}
, 			{
				"patchline" : 				{
					"destination" : [ "obj-10", 0 ],
					"source" : [ "obj-5", 0 ]
				}

			}
, 			{
				"patchline" : 				{
					"destination" : [ "obj-16", 0 ],
					"source" : [ "obj-6", 0 ]
				}

			}
, 			{
				"patchline" : 				{
					"destination" : [ "obj-4", 0 ],
					"source" : [ "obj-7", 0 ]
				}

			}
 ],
		"parameters" : 		{
			"obj-6::obj-14::obj-26::obj-47" : [ "live.dial[13]", "Note Length", 0 ],
			"obj-6::obj-43" : [ "live.gain~[1]", "live.gain~", 0 ],
			"obj-6::obj-146" : [ "live.gain~[4]", "live.gain~[2]", 0 ],
			"obj-6::obj-14::obj-88::obj-47" : [ "live.dial[40]", "Note Length", 0 ],
			"obj-6::obj-14::obj-64::obj-47" : [ "live.dial[2]", "Note Length", 0 ],
			"obj-6::obj-13" : [ "live.gain~", "live.gain~", 0 ],
			"obj-6::obj-14::obj-20::obj-47" : [ "live.dial[7]", "Note Length", 0 ],
			"obj-6::obj-14::obj-24::obj-47" : [ "live.dial[11]", "Note Length", 0 ],
			"obj-6::obj-14::obj-62::obj-47" : [ "live.dial[35]", "Note Length", 0 ],
			"obj-6::obj-14::obj-18::obj-47" : [ "live.dial[5]", "Note Length", 0 ],
			"obj-6::obj-14::obj-22::obj-47" : [ "live.dial[9]", "Note Length", 0 ],
			"obj-6::obj-33" : [ "amxd~", "amxd~", 0 ],
			"obj-6::obj-14::obj-4::obj-47" : [ "live.dial[3]", "Note Length", 0 ],
			"obj-6::obj-14::obj-21::obj-47" : [ "live.dial[8]", "Note Length", 0 ],
			"obj-6::obj-14::obj-63::obj-47" : [ "live.dial[1]", "Note Length", 0 ],
			"obj-6::obj-14::obj-25::obj-47" : [ "live.dial[12]", "Note Length", 0 ],
			"obj-6::obj-173" : [ "Time[1]", "Feedback", 0 ],
			"obj-6::obj-47" : [ "live.gain~[2]", "live.gain~[2]", 0 ],
			"obj-6::obj-172" : [ "Time", "Time", 0 ],
			"obj-6::obj-14::obj-19::obj-47" : [ "live.dial[6]", "Note Length", 0 ],
			"obj-6::obj-14::obj-23::obj-47" : [ "live.dial[10]", "Note Length", 0 ],
			"obj-6::obj-121" : [ "live.gain~[3]", "live.gain~[2]", 0 ],
			"obj-6::obj-14::obj-17::obj-47" : [ "live.dial[4]", "Note Length", 0 ]
		}
,
		"dependency_cache" : [ 			{
				"name" : "breath (withecho).maxpat",
				"bootpath" : "~/Desktop/Joseph Wilson - Designing Sound/Max Patches",
				"patcherrelativepath" : ".",
				"type" : "JSON",
				"implicit" : 1
			}
, 			{
				"name" : "master_balls2.maxpat",
				"bootpath" : "~/Desktop/Joseph Wilson - Designing Sound/Max Patches",
				"patcherrelativepath" : ".",
				"type" : "JSON",
				"implicit" : 1
			}
, 			{
				"name" : "Bell_Poly.maxpat",
				"bootpath" : "~/Desktop/Joseph Wilson - Designing Sound/Max Patches",
				"patcherrelativepath" : ".",
				"type" : "JSON",
				"implicit" : 1
			}
, 			{
				"name" : "ball3.maxpat",
				"bootpath" : "~/Desktop/Joseph Wilson - Designing Sound/Max Patches",
				"patcherrelativepath" : ".",
				"type" : "JSON",
				"implicit" : 1
			}
, 			{
				"name" : "Pitch & Echo.amxd.maxsnap",
				"bootpath" : "~/Documents/Max 7/Snapshots",
				"patcherrelativepath" : "../../../Documents/Max 7/Snapshots",
				"type" : "mx@s",
				"implicit" : 1
			}
, 			{
				"name" : "Pitch & Echo.amxd",
				"type" : "JSON",
				"implicit" : 1
			}
, 			{
				"name" : "M4L.bal2~.maxpat",
				"type" : "JSON",
				"implicit" : 1
			}
, 			{
				"name" : "M4L.vdelay~.maxpat",
				"type" : "JSON",
				"implicit" : 1
			}
, 			{
				"name" : "Text.maxpat",
				"bootpath" : "~/Desktop/Joseph Wilson - Designing Sound/Max Patches",
				"patcherrelativepath" : ".",
				"type" : "JSON",
				"implicit" : 1
			}
 ],
		"autosave" : 0,
		"styles" : [ 			{
				"name" : "AudioStatus_Menu",
				"default" : 				{
					"bgfillcolor" : 					{
						"type" : "color",
						"color" : [ 0.294118, 0.313726, 0.337255, 1 ],
						"color1" : [ 0.454902, 0.462745, 0.482353, 0.0 ],
						"color2" : [ 0.290196, 0.309804, 0.301961, 1.0 ],
						"angle" : 270.0,
						"proportion" : 0.39,
						"autogradient" : 0
					}

				}
,
				"parentstyle" : "",
				"multi" : 0
			}
 ]
	}

}
